<?xml version="1.0" encoding="UTF-8"?>
<!DOCTYPE svg PUBLIC "-//W3C//DTD SVG 1.1//EN" "http://www.w3.org/Graphics/SVG/1.1/DTD/svg11.dtd">
<svg version="1.1" xmlns="http://www.w3.org/2000/svg" xmlns:xlink="http://www.w3.org/1999/xlink" x="0" y="0" width="600" height="600" viewBox="0, 0, 600, 600">
  <g id="arcadeia-icon">
    <path d="M300.005,21.725 C259.445,21.725 226.555,54.605 226.555,95.175 L226.555,116.265 L297.375,187.085 L300.005,189.715 L302.635,187.085 L373.445,116.265 L373.445,95.175 C373.445,54.605 340.565,21.725 300.005,21.725 z M302.615,412.915 L300.005,410.285 L297.375,412.915 L226.555,483.735 L226.555,504.825 C226.555,545.385 259.445,578.275 300.005,578.275 C340.565,578.275 373.445,545.385 373.445,504.825 L373.445,483.735 L302.615,412.915 z" fill="#F4CE0C"/>
    <path d="M496.775,392.915 L481.855,377.995 L332.305,377.995 L303.215,407.085 L305.845,409.695 L392.925,496.775 C407.265,511.115 426.065,518.295 444.855,518.295 C463.655,518.295 482.445,511.115 496.785,496.775 C511.125,482.435 518.305,463.635 518.305,444.845 C518.305,426.055 511.115,407.255 496.775,392.915 z M207.095,103.235 C192.755,88.895 173.955,81.715 155.165,81.715 C136.375,81.715 117.575,88.895 103.235,103.235 C74.555,131.915 74.555,178.415 103.235,207.095 L114.445,218.305 L118.155,222.015 L267.695,222.015 L271.405,218.305 L296.785,192.925 L207.095,103.235 z" fill="#17B152"/>
    <path d="M504.835,226.555 L483.725,226.555 L336.835,373.445 L504.825,373.445 C545.385,373.445 578.275,340.565 578.275,300.005 C578.275,259.445 545.395,226.555 504.835,226.555 z M95.165,226.555 C54.605,226.555 21.725,259.445 21.725,300.005 C21.725,340.565 54.605,373.445 95.165,373.445 L116.275,373.445 L263.165,226.555 L95.165,226.555 z" fill="#E34220"/>
    <path d="M496.775,207.095 L207.095,496.775 C192.755,511.115 173.955,518.295 155.165,518.295 C145.765,518.295 136.365,516.495 127.525,512.915 C118.685,509.325 110.395,503.955 103.225,496.775 C74.545,468.095 74.545,421.595 103.225,392.915 L392.905,103.235 C407.245,88.895 426.045,81.715 444.835,81.715 C463.635,81.715 482.425,88.895 496.765,103.235 C525.455,131.915 525.455,178.415 496.775,207.095 z" fill="#1871B9"/>
    <path d="M257.935,226.555 L111.025,373.445 L116.265,373.445 L263.155,226.555 z" fill="#000000" opacity="0.2"/>
    <path d="M342.095,373.445 L488.975,226.555 L483.725,226.555 L336.835,373.445 z" fill="#000000" opacity="0.2"/>
    <path d="M332.305,377.995 L328.605,381.695 L303.205,407.085 L305.835,409.695 L333.845,381.695 L485.555,381.695 L481.855,377.995 z" fill="#000000" opacity="0.2"/>
    <path d="M267.695,222.015 L296.785,192.925 L294.175,190.305 L266.185,218.305 L114.435,218.305 L118.155,222.015 z" fill="#000000" opacity="0.2"/>
    <path d="M300.005,410.285 L226.555,483.745 L226.555,488.975 L300.005,415.525 L373.445,488.965 L373.445,483.745 L302.615,412.915 z" fill="#000000" opacity="0.2"/>
    <path d="M300.005,189.715 L302.635,187.095 L302.635,187.095 L373.445,116.265 L373.445,111.045 L300.005,184.465 L226.555,111.025 L226.555,116.265 z" fill="#000000" opacity="0.2"/>
  </g>
</svg>
