<?xml version="1.0" encoding="UTF-8"?>
<!DOCTYPE svg PUBLIC "-//W3C//DTD SVG 1.1//EN" "http://www.w3.org/Graphics/SVG/1.1/DTD/svg11.dtd">
<svg version="1.1" xmlns="http://www.w3.org/2000/svg" xmlns:xlink="http://www.w3.org/1999/xlink" x="0" y="0" width="1061.676" height="183.233" viewBox="0, 0, 1061.676, 183.233">
  <g id="icon">
    <path d="M91.618,0 C78.265,0 67.436,10.825 67.436,24.182 L67.436,31.125 L90.752,54.441 L91.618,55.307 L92.484,54.441 L115.797,31.125 L115.797,24.182 C115.797,10.825 104.972,0 91.618,0 z M92.477,128.792 L91.618,127.926 L90.752,128.792 L67.436,152.108 L67.436,159.051 C67.436,172.405 78.265,183.233 91.618,183.233 C104.972,183.233 115.797,172.405 115.797,159.051 L115.797,152.108 L92.477,128.792 z" fill="#F4CE0C"/>
    <path d="M156.401,122.207 L151.489,117.295 L102.252,117.295 L92.675,126.872 L93.541,127.731 L122.21,156.401 C126.931,161.122 133.121,163.486 139.307,163.486 C145.497,163.486 151.683,161.122 156.404,156.401 C161.125,151.68 163.489,145.49 163.489,139.304 C163.489,133.118 161.122,126.928 156.401,122.207 z M61.029,26.836 C56.308,22.114 50.119,19.751 43.932,19.751 C37.746,19.751 31.557,22.114 26.836,26.836 C17.393,36.278 17.393,51.587 26.836,61.029 L30.526,64.72 L31.748,65.941 L80.981,65.941 L82.202,64.72 L90.558,56.364 L61.029,26.836 z" fill="#17B152"/>
    <path d="M159.054,67.436 L152.104,67.436 L103.744,115.797 L159.051,115.797 C172.405,115.797 183.233,104.972 183.233,91.618 C183.233,78.265 172.408,67.436 159.054,67.436 z M24.179,67.436 C10.825,67.436 0,78.265 0,91.618 C0,104.972 10.825,115.797 24.179,115.797 L31.129,115.797 L79.489,67.436 L24.179,67.436 z" fill="#E34220"/>
    <path d="M156.401,61.029 L61.029,156.401 C56.308,161.122 50.119,163.486 43.932,163.486 C40.838,163.486 37.743,162.893 34.833,161.715 C31.922,160.533 29.193,158.765 26.832,156.401 C17.39,146.958 17.39,131.649 26.832,122.207 L122.204,26.836 C126.925,22.114 133.114,19.751 139.301,19.751 C145.49,19.751 151.676,22.114 156.397,26.836 C165.843,36.278 165.843,51.587 156.401,61.029 z" fill="#1871B9"/>
    <path d="M77.767,67.436 L29.4,115.797 L31.125,115.797 L79.486,67.436 z" fill="#000000" opacity="0.2"/>
    <path d="M105.475,115.797 L153.833,67.436 L152.104,67.436 L103.744,115.797 z" fill="#000000" opacity="0.2"/>
    <path d="M102.252,117.295 L101.034,118.513 L92.672,126.872 L93.538,127.731 L102.759,118.513 L152.707,118.513 L151.489,117.295 z" fill="#000000" opacity="0.2"/>
    <path d="M80.981,65.941 L90.558,56.364 L89.699,55.502 L80.484,64.72 L30.523,64.72 L31.748,65.941 z" fill="#000000" opacity="0.2"/>
    <path d="M91.618,127.926 L67.436,152.111 L67.436,153.833 L91.618,129.651 L115.797,153.829 L115.797,152.111 L92.477,128.792 z" fill="#000000" opacity="0.2"/>
    <path d="M91.618,55.307 L92.484,54.445 L92.484,54.445 L115.797,31.125 L115.797,29.407 L91.618,53.579 L67.436,29.4 L67.436,31.125 z" fill="#000000" opacity="0.2"/>
  </g>
  <g id="text">
    <path d="M209.05,146.575 L238.237,146.575 L248.018,121.735 L293.816,121.735 L303.597,146.575 L332.939,146.575 L292.264,49.389 C287.917,38.832 280.775,36.659 270.995,36.659 C257.643,36.659 253.141,40.85 249.57,49.389 z M268.666,66.156 C269.287,64.448 269.908,62.74 270.995,62.74 C272.081,62.74 272.547,64.448 273.168,66.156 L286.985,100.621 L254.849,100.621 z" fill="#E34220"/>
    <path d="M338.372,146.575 L366.317,146.575 L366.317,66.932 C366.317,61.498 368.18,59.635 373.614,59.635 L399.54,59.635 C410.097,59.635 413.357,63.361 413.357,74.539 C413.357,85.407 411.029,90.685 400.627,90.685 L391.467,90.685 C381.376,90.685 375.477,92.548 375.477,100.466 L375.477,102.95 C375.477,109.004 381.221,113.817 385.257,118.319 L409.787,146.575 L444.097,146.575 L409.476,111.799 L409.476,111.023 L417.239,111.023 C437.266,111.023 441.923,92.548 441.923,73.608 C441.923,51.097 435.403,37.9 412.892,37.9 L354.829,37.9 C344.738,37.9 338.372,43.024 338.372,54.667 z" fill="#E34220"/>
    <path d="M547.337,146.575 L547.337,124.84 L514.735,124.84 C489.895,124.84 482.754,118.63 482.754,92.238 C482.754,65.845 489.895,59.635 514.735,59.635 L545.785,59.635 L545.785,37.9 L500.918,37.9 C464.434,37.9 454.188,58.083 454.188,92.238 C454.188,126.392 464.434,146.575 500.918,146.575 z" fill="#F4CE0C"/>
    <path d="M550.908,146.575 L580.094,146.575 L589.875,121.735 L635.673,121.735 L645.454,146.575 L674.796,146.575 L634.121,49.389 C629.774,38.832 622.633,36.659 612.852,36.659 C599.501,36.659 594.998,40.85 591.428,49.389 z M610.523,66.156 C611.144,64.448 611.765,62.74 612.852,62.74 C613.939,62.74 614.404,64.448 615.025,66.156 L628.843,100.621 L596.706,100.621 z" fill="#F4CE0C"/>
    <path d="M741.708,146.575 C776.639,146.575 784.712,124.063 784.712,92.238 C784.712,60.412 776.639,37.9 740.311,37.9 L696.686,37.9 C686.595,37.9 680.23,43.024 680.23,54.667 L680.23,129.963 C680.23,141.607 686.595,146.575 696.686,146.575 z M708.175,67.398 C708.175,61.498 710.038,59.635 715.937,59.635 L722.302,59.635 C747.142,59.635 756.146,65.845 756.146,92.238 C756.146,118.63 747.142,124.84 722.302,124.84 L715.937,124.84 C710.038,124.84 708.175,122.977 708.175,117.077 z" fill="#16B153"/>
    <path d="M889.815,37.9 L815.141,37.9 C805.05,37.9 798.685,43.024 798.685,54.667 L798.685,129.963 C798.685,141.607 805.05,146.575 815.141,146.575 L890.436,146.575 L890.436,125.461 L833.926,125.461 C828.492,125.461 826.629,123.598 826.629,118.164 L826.629,101.552 L888.418,101.552 L888.418,81.37 L826.629,81.37 L826.629,66.311 C826.629,60.877 828.492,59.014 833.926,59.014 L889.815,59.014 z" fill="#16B153"/>
    <path d="M932.354,146.575 L932.354,37.9 L904.409,37.9 L904.409,146.575 z" fill="#1971B9"/>
    <path d="M937.787,146.575 L966.974,146.575 L976.755,121.735 L1022.553,121.735 L1032.334,146.575 L1061.676,146.575 L1021,49.389 C1016.654,38.832 1009.512,36.659 999.731,36.659 C986.38,36.659 981.878,40.85 978.307,49.389 z M997.403,66.156 C998.024,64.448 998.645,62.74 999.731,62.74 C1000.818,62.74 1001.284,64.448 1001.905,66.156 L1015.722,100.621 L983.586,100.621 z" fill="#1971B9"/>
  </g>
</svg>
