<?xml version="1.0" encoding="UTF-8"?>
<!DOCTYPE svg PUBLIC "-//W3C//DTD SVG 1.1//EN" "http://www.w3.org/Graphics/SVG/1.1/DTD/svg11.dtd">
<svg version="1.1" xmlns="http://www.w3.org/2000/svg" xmlns:xlink="http://www.w3.org/1999/xlink" x="0" y="0" width="700" height="90" viewBox="0, 0, 700, 90">
  <g id="arcadeia-logo">
    <path d="M1.258,89.958 L25.134,89.958 L33.135,69.638 L70.6,69.638 L78.601,89.958 L102.604,89.958 L69.33,10.456 C65.774,1.82 59.932,0.042 51.931,0.042 C41.009,0.042 37.326,3.471 34.405,10.456 z M50.026,24.172 C50.534,22.775 51.042,21.378 51.931,21.378 C52.82,21.378 53.201,22.775 53.709,24.172 L65.012,52.366 L38.723,52.366 z" fill="#E34220"/>
    <path d="M107.049,89.958 L129.909,89.958 L129.909,24.807 C129.909,20.362 131.433,18.838 135.878,18.838 L157.087,18.838 C165.723,18.838 168.39,21.886 168.39,31.03 C168.39,39.92 166.485,44.238 157.976,44.238 L150.483,44.238 C142.228,44.238 137.402,45.762 137.402,52.239 L137.402,54.271 C137.402,59.224 142.101,63.161 145.403,66.844 L165.469,89.958 L193.536,89.958 L165.215,61.51 L165.215,60.875 L171.565,60.875 C187.948,60.875 191.758,45.762 191.758,30.268 C191.758,11.853 186.424,1.058 168.009,1.058 L120.511,1.058 C112.256,1.058 107.049,5.249 107.049,14.774 z" fill="#E34220"/>
    <path d="M277.991,89.958 L277.991,72.178 L251.321,72.178 C231.001,72.178 225.159,67.098 225.159,45.508 C225.159,23.918 231.001,18.838 251.321,18.838 L276.721,18.838 L276.721,1.058 L240.018,1.058 C210.173,1.058 201.791,17.568 201.791,45.508 C201.791,73.448 210.173,89.958 240.018,89.958 z" fill="#F4CE0C"/>
    <path d="M280.912,89.958 L304.788,89.958 L312.789,69.638 L350.254,69.638 L358.255,89.958 L382.258,89.958 L348.984,10.456 C345.428,1.82 339.586,0.042 331.585,0.042 C320.663,0.042 316.98,3.471 314.059,10.456 z M329.68,24.172 C330.188,22.775 330.696,21.378 331.585,21.378 C332.474,21.378 332.855,22.775 333.363,24.172 L344.666,52.366 L318.377,52.366 z" fill="#F4CE0C"/>
    <path d="M436.995,89.958 C465.57,89.958 472.174,71.543 472.174,45.508 C472.174,19.473 465.57,1.058 435.852,1.058 L400.165,1.058 C391.91,1.058 386.703,5.249 386.703,14.774 L386.703,76.369 C386.703,85.894 391.91,89.958 400.165,89.958 z M409.563,25.188 C409.563,20.362 411.087,18.838 415.913,18.838 L421.12,18.838 C441.44,18.838 448.806,23.918 448.806,45.508 C448.806,67.098 441.44,72.178 421.12,72.178 L415.913,72.178 C411.087,72.178 409.563,70.654 409.563,65.828 z" fill="#16B153"/>
    <path d="M558.153,1.058 L497.066,1.058 C488.811,1.058 483.604,5.249 483.604,14.774 L483.604,76.369 C483.604,85.894 488.811,89.958 497.066,89.958 L558.661,89.958 L558.661,72.686 L512.433,72.686 C507.988,72.686 506.464,71.162 506.464,66.717 L506.464,53.128 L557.01,53.128 L557.01,36.618 L506.464,36.618 L506.464,24.299 C506.464,19.854 507.988,18.33 512.433,18.33 L558.153,18.33 z" fill="#16B153"/>
    <path d="M592.951,89.958 L592.951,1.058 L570.091,1.058 L570.091,89.958 z" fill="#1971B9"/>
    <path d="M597.396,89.958 L621.272,89.958 L629.273,69.638 L666.738,69.638 L674.739,89.958 L698.742,89.958 L665.468,10.456 C661.912,1.82 656.07,0.042 648.069,0.042 C637.147,0.042 633.464,3.471 630.543,10.456 z M646.164,24.172 C646.672,22.775 647.18,21.378 648.069,21.378 C648.958,21.378 649.339,22.775 649.847,24.172 L661.15,52.366 L634.861,52.366 z" fill="#1971B9"/>
  </g>
</svg>
