<?xml version="1.0" standalone="no"?>
<!DOCTYPE svg PUBLIC "-//W3C//DTD SVG 20010904//EN"
 "http://www.w3.org/TR/2001/REC-SVG-20010904/DTD/svg10.dtd">
<svg version="1.0" xmlns="http://www.w3.org/2000/svg"
 width="700.000000pt" height="700.000000pt" viewBox="0 0 700.000000 700.000000"
 preserveAspectRatio="xMidYMid meet">
<metadata>
Created by potrace 1.14, written by Peter Selinger 2001-2017
</metadata>
<g transform="translate(0.000000,700.000000) scale(0.100000,-0.100000)"
fill="#000000" stroke="none">
<path d="M3385 6739 c-241 -33 -463 -173 -598 -376 -54 -81 -108 -211 -127
-303 -7 -36 -14 -144 -15 -241 l-3 -176 429 -429 429 -429 429 429 429 429 -3
181 c-3 198 -14 265 -66 394 -106 265 -366 473 -649 518 -63 10 -196 11 -255
3z"/>
<path d="M1738 6045 c-2 -1 -27 -6 -57 -9 -68 -8 -211 -56 -277 -91 -375 -206
-541 -646 -397 -1048 49 -138 106 -219 268 -384 l101 -103 875 0 874 0 170
170 169 170 -539 538 c-517 514 -606 599 -657 627 -13 6 -39 21 -58 32 -67 37
-169 72 -260 88 -37 7 -207 15 -212 10z"/>
<path d="M5138 6045 c-2 -1 -28 -5 -58 -8 -55 -6 -67 -8 -125 -23 -63 -16
-169 -65 -238 -111 -106 -69 -3551 -3515 -3621 -3622 -173 -261 -188 -614 -37
-881 174 -309 505 -480 851 -439 153 18 290 72 407 160 69 52 3479 3456 3545
3539 81 101 154 267 174 390 80 512 -300 974 -818 995 -42 2 -78 2 -80 0z"/>
<path d="M941 4338 c-326 -66 -581 -310 -661 -633 -109 -443 146 -891 584
-1024 102 -31 115 -33 312 -36 l181 -3 857 857 857 857 -1022 0 c-932 0 -1029
-2 -1108 -18z"/>
<path d="M4785 3500 l-856 -856 1033 1 c568 1 1051 5 1073 9 219 43 413 163
542 336 58 79 90 141 123 239 147 440 -79 911 -515 1074 -110 41 -178 50 -367
52 l-176 2 -857 -857z"/>
<path d="M3706 2421 l-170 -170 535 -533 c500 -500 607 -602 669 -637 245
-142 504 -165 761 -68 384 145 612 564 527 968 -40 189 -110 308 -287 490
l-116 119 -875 0 -875 0 -169 -169z"/>
<path d="M3068 1783 l-427 -428 3 -175 c2 -96 7 -193 10 -215 18 -100 85 -263
139 -339 125 -178 344 -323 527 -352 19 -3 54 -9 77 -13 103 -19 269 0 397 46
223 80 409 259 495 475 52 128 63 196 66 393 l4 180 -427 428 c-235 235 -429
427 -432 427 -3 0 -197 -192 -432 -427z"/>
</g>
</svg>
